Coordinates
version=1
nRows=16
nColumns=40
inDegrees=yes

Units are S.I. units (second, meters, Newtons, ...)
Angles are in degrees.

endheader
time	pelvis_tilt	pelvis_list	pelvis_rotation	pelvis_tx	pelvis_ty	pelvis_tz	hip_flexion_r	hip_adduction_r	hip_rotation_r	knee_angle_r	knee_angle_r_beta	ankle_angle_r	subtalar_angle_r	mtp_angle_r	hip_flexion_l	hip_adduction_l	hip_rotation_l	knee_angle_l	knee_angle_l_beta	ankle_angle_l	subtalar_angle_l	mtp_angle_l	lumbar_extension	lumbar_bending	lumbar_rotation	arm_flex_r	arm_add_r	arm_rot_r	elbow_flex_r	pro_sup_r	wrist_flex_r	wrist_dev_r	arm_flex_l	arm_add_l	arm_rot_l	elbow_flex_l	pro_sup_l	wrist_flex_l	wrist_dev_l
     52.48500000	     -6.29097785	     -4.53308374	     -5.18264126	      0.91377237	      0.92701359	      0.43128640	     30.02706438	     -0.47748344	    -13.92767853	     12.57008623	     12.57008623	      2.54239809	      7.72587308	      8.76970244	      6.28452627	     -4.35702078	     -9.07113521	     15.87554755	     15.87554755	     16.50511828	    -11.19168366	     -1.72686163	    -11.34435853	      6.17920190	      1.59206625	    -12.97193700	    -13.80232467	     -4.42679876	     28.58955163	     46.30143554	      0.00000000	      0.00000000	     23.14010359	    -21.23069223	    -12.39679707	     84.78461001	     47.42767366	      0.00000000	      0.00000000
     52.49821429	     -6.40005949	     -4.37859020	     -5.33155149	      0.91471134	      0.92582936	      0.43335848	     29.63662991	     -0.29177787	    -14.30602008	     12.36159444	     12.36159444	      2.68311255	      8.03419402	      8.89414518	      5.57606791	     -4.26111309	     -9.32435819	     15.38208013	     15.38208013	     16.78315220	    -10.90652194	     -1.97662548	    -11.01034779	      6.03658620	      1.55297275	    -14.24187004	    -13.58334212	     -4.69139893	     28.45741864	     46.31279156	      0.00000000	      0.00000000	     23.31108260	    -21.29655342	    -12.67787346	     85.69209050	     47.47755042	      0.00000000	      0.00000000
     52.51142857	     -6.41534651	     -4.23548181	     -5.45705851	      0.91587656	      0.92465008	      0.43550712	     29.20707551	     -0.17576062	    -14.53469138	     12.72600703	     12.72600703	      2.77601522	      8.17037025	      8.46337513	      4.76719499	     -4.18001199	     -9.63704985	     14.92055860	     14.92055860	     17.10519338	    -10.50414022	     -2.28213447	    -10.77888635	      5.90636852	      1.52663192	    -15.36107410	    -13.34470501	     -5.07310416	     28.47715253	     46.32694500	      0.00000000	      0.00000000	     23.34176870	    -21.27746728	    -13.01419950	     86.77597091	     47.53773797	      0.00000000	      0.00000000
     52.52464286	     -6.49525419	     -4.21269288	     -5.50245923	      0.91723748	      0.92335311	      0.43771650	     28.77116220	      0.02978484	    -14.52863245	     13.30156001	     13.30156001	      2.79745177	      8.01656940	      8.09505384	      4.11252870	     -4.24039773	     -9.73650464	     14.64550808	     14.64550808	     17.49720654	    -10.34415037	     -2.41130658	    -10.42150233	      5.97799729	      1.41264671	    -16.23708896	    -13.10374212	     -5.17715226	     28.27759013	     46.33400651	      0.00000000	      0.00000000	     23.28819625	    -21.37239455	    -13.21902099	     87.16859808	     47.56388151	      0.00000000	      0.00000000
     52.53785714	     -6.43692775	     -4.04785489	     -5.61877988	      0.91883248	      0.92211268	      0.44007263	     28.37507189	      0.07283923	    -14.11678217	     14.38250534	     14.38250534	      2.80642371	      7.55187163	      7.03868234	      3.16607751	     -4.13349017	    -10.07300063	     14.13670128	     14.13670128	     17.90400983	     -9.79339529	     -2.49472521	    -10.22187769	      5.78043816	      1.45710400	    -16.90571698	    -12.85754485	     -5.40382009	     28.22957365	     46.34482222	      0.00000000	      0.00000000	     23.15548460	    -21.12031859	    -13.49921311	     88.06282209	     47.60937223	      0.00000000	      0.00000000
     52.55107143	     -6.39817026	     -3.98229485	     -5.61048170	      0.92062448	      0.92072539	      0.44245442	     27.68385764	      0.30404938	    -13.35507548	     14.84638935	     14.84638935	      1.37606827	      6.46725840	      2.18550223	      2.46856762	     -4.22678120	    -10.48668807	     14.10918138	     14.10918138	     18.73513394	     -8.87558659	     -2.09841394	    -10.00863229	      5.75246333	      0.92344741	    -17.22801227	    -12.53051591	     -6.54588114	     28.37571662	     46.40843995	      0.00000000	      0.00000000	     22.28235696	    -21.05557721	    -14.55670421	     89.55603265	     47.77651345	      0.00000000	      0.00000000
     52.56428571	     -6.31469014	     -3.98038371	     -5.57946554	      0.92233596	      0.91956562	      0.44475985	     27.24762273	      0.44494241	    -12.78764941	     15.97909168	     15.97909168	      1.64150685	      5.92124605	      1.69251334	      1.69428906	     -4.30874002	    -10.47778932	     13.96876915	     13.96876915	     19.12865660	     -8.78034251	     -2.05349289	     -9.84757618	      5.82299374	      0.93927659	    -17.49491484	    -12.28605111	     -6.52896252	     28.15587972	     46.41258311	      0.00000000	      0.00000000	     22.10276084	    -20.78152119	    -14.54604879	     89.65123713	     47.78360482	      0.00000000	      0.00000000
     52.57750000	     -6.25862941	     -3.93861573	     -5.52822316	      0.92399927	      0.91846779	      0.44713488	     26.84242037	      0.67320021	    -11.61841884	     16.88981433	     16.88981433	      1.35825512	      4.29845737	     -0.23813725	      1.12231950	     -4.42033355	    -10.61376803	     14.18233796	     14.18233796	     20.03870686	     -8.24166083	     -0.95091257	     -9.66192587	      5.83058932	      0.77140670	    -17.27285577	    -11.98185065	     -6.59210674	     27.46361546	     46.43974768	      0.00000000	      0.00000000	     21.62036721	    -20.41536243	    -14.89038150	     90.01581703	     47.86701552	      0.00000000	      0.00000000
     52.59071429	     -6.16886138	     -3.91987668	     -5.43083705	      0.92555064	      0.91758043	      0.44941580	     26.57534381	      0.80382814	    -10.83091272	     18.04512683	     18.04512683	      1.78496481	      3.30439630	     -0.72079799	      0.60600461	     -4.53928507	    -10.48733822	     14.47861686	     14.47861686	     20.40940700	     -8.31049131	     -0.77628554	     -9.55707452	      5.88183415	      0.74000532	    -17.09197625	    -11.74647974	     -6.53425398	     27.36938825	     46.43888372	      0.00000000	      0.00000000	     21.24595623	    -20.00843862	    -14.89679755	     90.00637654	     47.87633190	      0.00000000	      0.00000000
     52.60392857	     -6.08569680	     -3.97364451	     -5.29878382	      0.92692872	      0.91694574	      0.45171157	     26.32971337	      1.04797398	     -9.91511311	     19.05170403	     19.05170403	      2.21842878	      1.93100349	     -1.14931706	      0.31988091	     -4.78231720	    -10.26040399	     15.17241641	     15.17241641	     20.80137283	     -8.56005368	     -0.43726734	     -9.48280973	      6.01957918	      0.64331870	    -16.63831000	    -11.54824815	     -6.42420078	     27.23430272	     46.43846106	      0.00000000	      0.00000000	     20.72662998	    -19.53339582	    -14.95131412	     89.85605785	     47.88666849	      0.00000000	      0.00000000
     52.61714286	     -5.86399783	     -4.06891113	     -5.14758889	      0.92840582	      0.91696896	      0.45393554	     25.76883253	      1.23613048	     -9.56128729	     19.67479945	     19.67479945	      2.82335577	      1.56857821	     -1.45859345	     -0.13540076	     -5.05562492	    -10.05961972	     15.80035746	     15.80035746	     20.88201490	     -8.81650091	     -0.41865200	     -9.58586285	      6.21485527	      0.63761189	    -16.07374227	    -11.32890089	     -6.36341189	     27.36677068	     46.43264127	      0.00000000	      0.00000000	     20.08296048	    -18.91262048	    -14.72883617	     89.60080574	     47.86548083	      0.00000000	      0.00000000
     52.63035714	     -5.81248228	     -4.17469177	     -4.92997446	      0.92923588	      0.91677136	      0.45624740	     25.69559340	      1.60909953	     -8.40284943	     20.61471528	     20.61471528	      3.22966814	     -0.76519155	     -1.70170391	      0.25509853	     -5.46046059	     -9.53372692	     17.60667854	     17.60667854	     21.33141208	     -9.63023732	      0.42088573	     -9.57227068	      6.40849317	      0.36271882	    -14.92610222	    -11.26132894	     -5.93477428	     26.78357407	     46.43312917	      0.00000000	      0.00000000	     19.45748778	    -18.44837382	    -15.08965206	     88.97102909	     47.89972663	      0.00000000	      0.00000000
     52.64357143	     -5.71807451	     -4.25273195	     -4.68714511	      0.93007774	      0.91699332	      0.45841582	     25.43129489	      1.76567623	     -8.11498370	     21.28111018	     21.28111018	      3.84066212	     -1.52232522	     -1.95537214	      0.68643180	     -5.83852066	     -9.05247118	     19.49819314	     19.49819314	     21.26561602	    -10.49404433	      0.41133612	     -9.59279755	      6.57197029	      0.22311531	    -13.89553578	    -11.13421965	     -5.72253233	     26.85285058	     46.42207329	      0.00000000	      0.00000000	     18.73152468	    -17.87284102	    -14.92315080	     88.33211009	     47.88353547	      0.00000000	      0.00000000
     52.65678571	     -5.51144463	     -4.37770317	     -4.40983786	      0.93079019	      0.91761080	      0.46059170	     24.95935934	      1.95611337	     -7.97927141	     21.74563092	     21.74563092	      4.44516837	     -2.15940601	     -2.13390993	      1.21683753	     -6.28592784	     -8.50807224	     21.75403769	     21.75403769	     20.95974611	    -11.53335741	      0.21280642	     -9.81214480	      6.75667001	      0.13885630	    -12.73506441	    -11.03137200	     -5.56154831	     27.08365352	     46.40963606	      0.00000000	      0.00000000	     18.05460972	    -17.31133130	    -14.69715408	     87.56092314	     47.85652124	      0.00000000	      0.00000000
     52.67000000	     -5.42164692	     -4.48126804	     -4.09152170	      0.93124722	      0.91824296	      0.46268331	     24.53851199	      2.12164926	     -7.92721379	     22.02457527	     22.02457527	      4.96605203	     -2.74515429	     -2.23033222	      2.19166766	     -6.74036092	     -7.86137824	     24.51186133	     24.51186133	     20.39093355	    -12.80306652	     -0.13842201	     -9.85978377	      6.96388238	     -0.01417635	    -11.43662041	    -10.92570004	     -5.35797097	     27.36626422	     46.39277743	      0.00000000	      0.00000000	     17.28492643	    -16.70590770	    -14.40848464	     86.45490612	     47.81907093	      0.00000000	      0.00000000
     52.68321429	     -5.23314638	     -4.61784735	     -3.76406022	      0.93159684	      0.91908949	      0.46481775	     23.94216599	      2.29914091	     -8.05415903	     22.18473578	     22.18473578	      5.48622088	     -3.06662138	     -2.34437188	      3.26889547	     -7.24756850	     -7.22451067	     27.60942896	     27.60942896	     19.56875797	    -14.10658187	     -0.54977257	    -10.07231086	      7.13515771	     -0.10066661	    -10.00737922	    -10.87048036	     -5.17919478	     27.77035862	     46.37394232	      0.00000000	      0.00000000	     16.56118561	    -16.10039897	    -14.05542683	     85.28520124	     47.77489728	      0.00000000	      0.00000000
